<?xml version="1.0" standalone="no"?>
<!DOCTYPE svg PUBLIC "-//W3C//DTD SVG 20010904//EN"
 "http://www.w3.org/TR/2001/REC-SVG-20010904/DTD/svg10.dtd">
<svg version="1.0" xmlns="http://www.w3.org/2000/svg"
 width="215.000000pt" height="215.000000pt" viewBox="0 0 215.000000 215.000000"
 preserveAspectRatio="xMidYMid meet">

<g transform="translate(0.000000,215.000000) scale(0.100000,-0.100000)"
fill="#000000" stroke="none">
<path d="M995 1994 c-48 -24 -103 -89 -111 -129 -27 -148 55 -259 191 -260 79
0 130 26 173 89 27 41 32 57 32 108 0 87 -37 151 -112 189 -46 23 -131 25
-173 3z m219 -66 c-5 -8 -2 -9 10 -5 14 6 15 3 6 -13 -6 -11 -13 -20 -16 -20
-3 0 -3 4 1 9 3 5 1 12 -5 16 -10 6 -5 25 6 25 3 0 2 -5 -2 -12z m-292 -56
c-5 -15 -4 -15 11 -3 19 15 19 15 22 -16 1 -12 -1 -20 -6 -17 -4 2 -5 12 -2
21 5 12 3 14 -8 8 -7 -5 -22 -10 -31 -10 -13 -1 -15 2 -7 11 6 7 8 18 4 23 -3
7 0 8 9 5 9 -3 12 -12 8 -22z m293 -32 c-17 -19 -41 -18 -29 1 3 5 9 7 14 4 5
-3 11 -1 15 5 3 5 9 10 12 10 3 0 -2 -9 -12 -20z m49 5 c-4 -8 -11 -12 -16 -9
-6 4 -5 10 3 15 19 12 19 11 13 -6z m-84 -94 c0 -6 -4 -13 -10 -16 -5 -3 -10
1 -10 9 0 9 5 16 10 16 6 0 10 -4 10 -9z m-255 -21 c-3 -5 -1 -10 6 -10 7 0
10 -3 6 -6 -9 -9 -28 6 -22 17 4 5 8 9 11 9 3 0 2 -4 -1 -10z m308 -27 c-7 -2
-10 -10 -7 -17 3 -7 -2 -19 -11 -26 -8 -7 -15 -9 -15 -5 0 4 -8 1 -17 -6 -10
-7 -7 -1 6 13 13 16 20 32 16 39 -5 8 -4 10 3 5 8 -4 12 0 12 10 0 15 2 16 13
5 9 -10 9 -15 0 -18z m-227 -49 c15 -2 22 1 18 8 -4 6 -2 8 4 5 5 -4 8 -17 5
-28 -6 -20 -7 -20 -18 -5 -14 18 -30 22 -19 4 4 -6 -5 -3 -19 8 -15 10 -27 23
-27 28 0 5 7 3 16 -4 8 -8 26 -15 40 -16z m135 -14 c6 0 7 5 3 12 -4 7 -3 8 5
4 9 -6 9 -11 -1 -23 -7 -9 -14 -11 -16 -5 -2 6 -11 8 -20 5 -14 -6 -15 -5 -2
9 8 9 17 12 18 7 2 -5 8 -9 13 -9z"/>
<path d="M287 1516 c-51 -14 -76 -38 -77 -73 0 -25 47 -66 67 -59 7 3 13 2 13
-3 0 -11 137 -34 151 -25 7 4 9 3 6 -3 -4 -6 0 -14 9 -17 32 -12 -5 -36 -55
-36 -26 0 -53 -6 -60 -12 -10 -11 -12 -10 -10 2 6 37 -12 50 -68 50 -50 0 -54
-2 -51 -21 2 -12 16 -31 31 -43 25 -18 42 -21 135 -21 142 1 178 11 203 56 12
23 -4 64 -29 78 -26 14 -202 52 -212 46 -12 -8 -6 21 8 38 14 16 85 8 105 -12
6 -6 35 -11 65 -11 44 0 53 3 50 16 -2 9 -15 25 -29 36 -34 25 -183 34 -252
14z m65 -13 c-6 -3 -9 -10 -5 -16 4 -7 -1 -6 -10 2 -21 17 -21 17 6 18 12 0
16 -1 9 -4z m124 -17 c0 -21 -3 -23 -18 -15 -10 5 -18 12 -18 15 0 3 4 3 9 0
5 -3 11 1 15 9 8 22 12 18 12 -9z m-225 -29 c-8 -8 -11 -7 -11 4 0 20 13 34
18 19 3 -7 -1 -17 -7 -23z m276 7 c-3 -3 -12 -4 -19 -1 -8 3 -5 6 6 6 11 1 17
-2 13 -5z m-249 -38 c-2 -19 -5 -22 -15 -14 -10 8 -10 14 -2 24 16 20 19 18
17 -10z m79 -3 c-4 -3 1 -15 10 -25 16 -18 16 -18 -2 -12 -14 6 -16 4 -10 -7
7 -11 6 -12 -7 -2 -8 7 -19 9 -23 5 -5 -4 -4 -1 0 7 6 11 4 13 -9 8 -10 -4
-15 -3 -11 4 4 5 15 7 26 4 11 -4 19 -3 18 2 -2 14 1 23 8 23 3 0 3 -3 0 -7z
m68 -55 c-9 -5 -21 -7 -28 -4 -7 2 -4 5 7 5 13 1 16 6 12 17 -6 14 -4 15 9 4
15 -12 15 -14 0 -22z m117 7 c7 3 4 -1 -6 -9 -24 -19 -32 -20 -42 -4 -4 7 -3
8 4 4 7 -4 12 -1 12 9 0 10 -5 13 -12 9 -7 -5 -8 -3 -3 6 6 10 11 9 21 -4 7
-10 18 -15 26 -11z m32 -31 c5 -14 4 -15 -9 -4 -17 14 -19 20 -6 20 5 0 12 -7
15 -16z m-34 -34 c0 -31 -15 -30 -17 1 -1 17 2 27 7 24 6 -4 10 -15 10 -25z
m-252 -29 c3 -8 -1 -12 -9 -9 -7 2 -15 10 -17 17 -3 8 1 12 9 9 7 -2 15 -10
17 -17z m116 -2 c3 -3 -4 -5 -14 -6 -11 -1 -22 2 -24 6 -5 8 30 8 38 0z"/>
<path d="M640 1390 l0 -140 168 0 167 0 1 30 2 30 -109 0 -109 0 0 25 c0 14 1
28 3 31 1 4 44 6 95 5 l92 -2 0 26 0 26 -100 -2 c-56 -1 -104 2 -108 6 -4 5
-1 5 6 0 10 -5 13 -1 10 16 -1 12 -9 24 -17 27 -8 3 -11 0 -7 -6 3 -6 3 -13
-2 -16 -4 -2 -8 6 -8 19 0 13 3 22 7 19 4 -2 13 4 19 13 10 16 10 16 5 -3 -6
-21 -3 -22 105 -23 l110 -2 0 31 0 30 -165 0 -165 0 0 -140z m100 -9 c-13 -25
-13 -33 0 -41 8 -5 7 -9 -3 -13 -9 -3 -18 1 -21 9 -3 8 -1 14 3 14 5 0 8 11 7
23 -2 14 2 24 10 24 9 0 10 -6 4 -16z m5 -71 c-3 -6 1 -13 9 -16 20 -8 21 -21
1 -21 -8 0 -12 4 -9 9 3 4 -2 11 -11 14 -13 6 -14 8 -3 15 17 11 20 11 13 -1z"/>
<path d="M1030 1390 l0 -140 55 0 55 0 0 65 c0 45 -4 65 -12 65 -10 0 -9 3 1
9 7 5 11 13 7 19 -9 15 14 26 27 13 15 -15 30 -14 21 2 -6 9 -5 9 7 0 14 -11
42 -4 40 11 -3 17 1 18 18 2 21 -19 19 -41 -4 -50 -9 -3 -12 0 -9 9 4 10 -2
13 -20 11 -39 -4 -39 -10 -3 -42 l32 -29 -25 30 -24 30 27 -26 c16 -14 29 -33
31 -42 1 -9 15 -30 31 -47 27 -28 33 -30 106 -30 l77 0 1 140 2 140 -61 0 -60
0 0 -96 0 -95 -22 25 c-13 13 -50 56 -83 95 l-60 70 -77 0 -78 1 0 -140z m190
69 c0 -5 -4 -9 -8 -9 -5 0 -9 7 -9 15 0 8 4 12 9 9 4 -3 8 -9 8 -15z m170 12
c0 -6 -4 -13 -10 -16 -5 -3 -10 1 -10 9 0 9 5 16 10 16 6 0 10 -4 10 -9z m-13
-73 c-3 -8 -6 -5 -6 6 -1 11 2 17 5 13 3 -3 4 -12 1 -19z m-74 -46 c-2 -10
-14 -24 -26 -31 -18 -11 -20 -11 -9 0 6 7 12 17 12 22 0 4 -6 5 -12 1 -7 -4
-5 2 5 13 9 11 14 24 10 28 -5 5 -1 4 8 -3 10 -7 15 -21 12 -30z m-223 -12 c0
-5 -4 -10 -10 -10 -5 0 -10 5 -10 10 0 6 5 10 10 10 6 0 10 -4 10 -10z m369
-36 c-13 -16 -29 -18 -29 -4 0 6 7 10 16 10 9 0 12 5 8 12 -4 7 -3 8 5 4 9 -6
9 -11 0 -22z m-114 -5 c10 -15 -1 -23 -20 -15 -9 3 -13 10 -10 16 8 13 22 13
30 -1z"/>
<path d="M1665 1521 c-7 -12 12 -24 24 -17 5 3 15 -2 22 -12 12 -15 12 -16 -1
-6 -14 9 -57 12 -63 3 -57 -78 -77 -109 -71 -109 4 0 -1 -6 -12 -14 -10 -8
-16 -18 -12 -22 5 -4 18 1 30 12 23 18 23 18 6 0 -16 -18 -16 -21 3 -48 11
-15 25 -26 30 -22 5 3 7 8 5 12 -2 4 39 6 91 4 77 -3 94 -1 87 10 -6 10 -5 11
8 1 8 -7 19 -9 23 -5 5 4 5 1 1 -5 -4 -7 -2 -22 4 -33 9 -17 21 -20 75 -20 36
0 65 2 65 5 0 3 -21 37 -46 75 -41 60 -49 68 -63 58 -14 -11 -14 -11 -3 4 12
15 8 25 -28 77 l-41 61 -64 0 c-35 0 -66 -4 -70 -9z m145 -26 c0 -2 -9 -3 -19
-2 -11 0 -18 5 -15 9 4 6 34 0 34 -7z m-133 -21 c-3 -3 -12 -4 -19 -1 -8 3 -5
6 6 6 11 1 17 -2 13 -5z m97 -8 c-3 -8 -12 -12 -20 -9 -8 3 -14 1 -14 -4 0
-12 31 -57 47 -66 26 -16 1 -27 -62 -27 l-64 0 36 53 c19 28 45 55 56 59 12 3
23 6 24 7 1 1 0 -5 -3 -13z m36 0 c0 -2 -7 -7 -16 -10 -8 -3 -12 -2 -9 4 6 10
25 14 25 6z m-140 -16 c-18 -12 -30 -13 -30 -2 0 4 10 9 22 9 18 2 20 0 8 -7z
m24 -26 c-20 -30 -29 -32 -12 -1 7 12 11 26 10 30 -1 5 2 6 8 2 6 -4 4 -15 -6
-31z m141 26 c4 -6 3 -10 -2 -9 -25 4 -34 -2 -28 -21 3 -11 2 -20 -4 -20 -20
0 -21 20 -1 40 23 23 26 24 35 10z m15 -26 c0 -8 -19 -13 -24 -6 -3 5 1 9 9 9
8 0 15 -2 15 -3z m-25 -43 c3 -5 2 -12 -3 -15 -5 -3 -9 1 -9 9 0 17 3 19 12 6z
m58 -16 c-3 -9 -8 -14 -10 -11 -3 3 -2 9 2 15 9 16 15 13 8 -4z m-231 -30 c2
3 5 -2 5 -10 0 -9 -4 -11 -11 -6 -11 9 -16 11 -38 11 -9 0 -8 3 2 10 9 5 19 5
26 0 6 -6 13 -8 16 -5z m144 -4 c-3 -4 -24 -8 -47 -9 -23 -1 -40 0 -37 3 3 3
21 6 41 7 21 1 34 5 30 11 -3 6 -1 7 6 3 6 -4 9 -11 7 -15z m101 -57 c2 -6 -3
-11 -12 -11 -8 0 -15 7 -15 15 0 15 22 12 27 -4z m57 -2 c3 -5 -1 -9 -9 -9 -8
0 -12 4 -9 9 3 4 7 8 9 8 2 0 6 -4 9 -8z"/>
<path d="M1236 1425 c4 -8 11 -15 16 -15 6 0 5 6 -2 15 -7 8 -14 15 -16 15 -2
0 -1 -7 2 -15z"/>
<path d="M1510 1294 l-32 -45 64 3 c48 2 63 7 63 18 0 8 -6 14 -12 13 -7 -2
-12 0 -12 5 3 20 -3 32 -20 41 -15 9 -23 3 -51 -35z m55 -2 c3 -16 0 -19 -12
-15 -11 4 -14 2 -9 -5 4 -7 1 -12 -10 -12 -13 0 -14 3 -4 15 7 8 9 15 5 15 -4
0 -2 7 5 15 15 18 19 16 25 -13z"/>
<path d="M111 1111 l0 -70 281 -1 c246 0 284 -3 300 -17 23 -21 23 -44 -3 -87
-19 -33 -19 -35 -2 -46 16 -10 16 -10 -4 -5 -19 5 -30 -10 -99 -132 -43 -76
-91 -158 -106 -182 -21 -34 -25 -48 -16 -58 9 -11 7 -12 -8 -6 -16 6 -17 5 -6
-9 11 -14 8 -20 -21 -44 -19 -16 -40 -40 -47 -53 -11 -22 -9 -27 41 -71 30
-27 56 -46 59 -45 3 2 21 34 40 72 19 37 37 70 40 73 14 12 60 100 53 100 -4
0 -3 4 4 8 21 13 114 183 107 194 -4 6 -3 8 3 5 12 -8 176 280 167 295 -4 7
-3 8 4 4 12 -7 45 47 35 58 -4 3 -2 6 3 6 6 0 20 18 33 40 l22 40 -439 0 -440
0 -1 -69z m799 19 c0 -5 -4 -10 -9 -10 -6 0 -13 5 -16 10 -3 6 1 10 9 10 9 0
16 -4 16 -10z m-752 -25 c-3 -3 -9 2 -12 12 -6 14 -5 15 5 6 7 -7 10 -15 7
-18z m766 -11 c5 -14 4 -15 -9 -4 -17 14 -19 20 -6 20 5 0 12 -7 15 -16z m-69
-24 c0 -7 -6 -15 -12 -17 -8 -3 -13 4 -13 17 0 13 5 20 13 18 6 -3 12 -11 12
-18z m-700 -8 c-3 -3 -11 0 -18 7 -9 10 -8 11 6 5 10 -3 15 -9 12 -12z m599
-41 c3 -5 -1 -11 -9 -15 -9 -3 -15 0 -15 9 0 16 16 20 24 6z m-38 -116 c1 -9
-4 -11 -14 -7 -10 4 -12 7 -4 10 7 2 9 9 5 15 -3 7 -2 8 2 4 5 -4 10 -14 11
-22z m44 15 c0 -5 -5 -10 -11 -10 -5 0 -7 5 -4 10 3 6 8 10 11 10 2 0 4 -4 4
-10z m67 -5 c0 -8 -4 -12 -9 -9 -5 3 -6 10 -3 15 9 13 12 11 12 -6z m-72 -63
c2 -12 0 -24 -5 -27 -5 -3 -7 4 -5 15 2 11 -1 20 -6 20 -6 0 -7 5 -4 11 9 13
15 7 20 -19z m40 8 c-3 -5 -12 -10 -18 -10 -7 0 -6 4 3 10 19 12 23 12 15 0z
m-53 -75 c2 3 5 -2 5 -10 0 -8 -4 -12 -9 -9 -4 3 -8 0 -8 -7 0 -19 -10 -5 -15
21 -3 17 -1 19 9 11 7 -6 15 -9 18 -6z m-147 -45 c-3 -5 1 -10 9 -10 9 0 16
-4 16 -10 0 -12 -22 -9 -32 5 -7 9 -2 25 8 25 3 0 2 -4 -1 -10z m92 -29 c10
-16 9 -19 -5 -17 -9 2 -18 10 -20 19 -5 23 10 21 25 -2z m-16 -48 c13 -16 12
-17 -3 -4 -10 7 -18 15 -18 17 0 8 8 3 21 -13z m-113 -28 c2 -28 -15 -42 -31
-26 -9 9 -8 11 6 5 14 -5 18 -2 17 12 -3 21 -1 34 3 34 1 0 4 -11 5 -25z m112
-9 c0 -2 -7 -7 -16 -10 -8 -3 -12 -2 -9 4 6 10 25 14 25 6z m-71 -83 l13 -28
-21 22 c-23 24 -26 33 -13 33 5 0 14 -12 21 -27z m-17 -50 c-6 -2 -10 -9 -7
-13 3 -5 1 -11 -4 -14 -7 -5 -8 11 -2 32 1 1 7 2 14 1 9 0 9 -2 -1 -6z m-97
-62 c-8 -16 -12 -31 -10 -33 3 -3 -1 -5 -9 -5 -11 0 -10 7 5 30 10 17 15 35
12 40 -3 6 -1 7 5 3 9 -5 8 -15 -3 -35z m-15 19 c0 -5 -2 -10 -4 -10 -3 0 -8
5 -11 10 -3 6 -1 10 4 10 6 0 11 -4 11 -10z m43 -15 c-3 -9 -8 -14 -10 -11 -3
3 -2 9 2 15 9 16 15 13 8 -4z m46 12 c-2 -1 -13 -9 -24 -17 -19 -14 -19 -14
-6 3 7 9 18 17 24 17 6 0 8 -1 6 -3z m-37 -60 c-12 -13 -19 -27 -15 -30 3 -4
1 -7 -5 -7 -7 0 -12 -6 -12 -14 0 -8 -5 -18 -12 -22 -7 -4 -8 -3 -4 4 4 7 2
12 -4 12 -6 0 -4 7 5 16 13 14 14 19 3 26 -10 8 -9 9 4 5 9 -3 24 3 34 14 9
10 19 19 22 19 3 0 -4 -10 -16 -23z m-76 -9 c4 -7 4 -10 -1 -6 -4 4 -17 3 -29
-3 -20 -10 -20 -10 -2 5 24 19 23 19 32 4z m1 -24 c-3 -3 -12 -4 -19 -1 -8 3
-5 6 6 6 11 1 17 -2 13 -5z"/>
<path d="M1160 1176 c0 -15 134 -236 143 -236 6 0 8 -3 4 -6 -10 -10 22 -66
34 -59 5 4 6 12 3 18 -4 7 -3 8 1 4 12 -10 15 -38 4 -31 -17 10 -8 -12 41 -96
27 -47 81 -142 121 -212 40 -70 77 -124 82 -121 6 3 7 1 4 -4 -6 -10 51 -124
72 -146 4 -4 24 10 43 31 19 21 43 42 52 45 27 11 13 31 -20 32 -24 1 -30 -3
-30 -20 1 -12 -5 -19 -13 -17 -8 2 -11 -3 -8 -12 4 -10 1 -13 -9 -9 -11 4 -12
9 -3 19 6 8 16 11 23 8 6 -3 4 0 -5 8 -14 12 -14 15 3 32 10 11 18 14 18 8 0
-6 9 -10 20 -9 11 1 20 3 20 6 0 18 -145 249 -153 244 -6 -3 -7 -1 -3 5 10 16
-22 74 -36 66 -7 -4 -8 -3 -4 4 9 15 -61 142 -80 143 -28 3 -32 4 -41 13 -5 5
-3 6 5 2 6 -4 12 -3 12 3 0 5 -6 12 -12 14 -10 4 -10 6 0 6 7 1 15 -6 18 -14
4 -8 10 -15 15 -15 6 0 -2 20 -16 43 -31 54 -32 81 -3 101 19 14 65 16 295 16
l273 0 0 70 0 70 -435 0 c-239 0 -435 -2 -435 -4z m120 -36 c0 -5 -4 -10 -10
-10 -5 0 -10 5 -10 10 0 6 5 10 10 10 6 0 10 -4 10 -10z m-15 -56 c1 -11 -5
-21 -12 -21 -7 0 -11 2 -8 5 2 2 -5 12 -17 21 -20 17 -20 17 8 16 20 0 28 -5
29 -21z m90 -111 c-4 -10 -8 -26 -9 -35 -1 -10 -6 -21 -10 -25 -4 -5 -7 -3 -5
2 1 6 -1 18 -6 28 -4 10 -2 23 5 32 17 21 34 19 25 -2z m54 -93 c0 -10 -3 -8
-9 5 -12 27 -12 43 0 25 5 -8 9 -22 9 -30z m66 -76 c1 -13 -1 -24 -4 -24 -14
0 -29 39 -24 60 5 20 7 20 15 5 6 -9 11 -28 13 -41z m39 7 c-2 -3 -12 3 -22
13 -16 17 -16 18 5 5 12 -7 20 -15 17 -18z m-78 -47 c1 -9 0 -13 -4 -10 -3 4
-7 14 -8 22 -1 9 0 13 4 10 3 -4 7 -14 8 -22z m99 -34 c1 -30 -7 -32 -11 -3
-2 14 3 33 9 33 1 0 2 -13 2 -30z m-53 -18 c5 -19 -27 -29 -37 -11 -3 5 1 6 9
3 11 -4 16 0 16 10 0 21 7 20 12 -2z m78 -48 c0 -8 -5 -12 -10 -9 -6 4 -8 11
-5 16 9 14 15 11 15 -7z m-20 -34 c0 -6 -5 -19 -12 -29 -10 -17 -13 -17 -26
-4 -12 12 -12 17 -2 26 10 9 11 9 6 0 -3 -6 -2 -15 4 -18 6 -4 10 -3 9 2 -3
18 2 33 11 33 6 0 10 -5 10 -10z m86 -1 c3 -6 0 -15 -7 -20 -12 -7 -11 -9 1
-9 12 0 12 -2 1 -9 -9 -6 -10 -11 -2 -15 6 -4 15 -4 21 -1 5 3 7 0 4 -8 -2 -7
-11 -14 -19 -14 -8 0 -12 4 -9 8 2 4 0 10 -5 13 -10 7 -9 25 2 43 4 7 0 13
-10 16 -16 4 -16 5 -1 6 9 0 20 -4 24 -10z m-48 -76 c-2 -9 -9 -18 -16 -19 -7
-1 -8 0 -3 2 6 3 7 12 4 20 -3 8 0 14 7 14 6 0 10 -8 8 -17z m0 -73 c-2 -7
-10 1 -17 16 -12 27 -11 28 4 12 10 -9 16 -21 13 -28z m123 8 c0 -7 2 -21 4
-31 2 -9 -1 -15 -6 -11 -5 3 -7 9 -4 14 3 5 1 11 -5 15 -5 3 -10 10 -10 16 0
14 20 11 21 -3z"/>
<path d="M1450 820 c0 -5 5 -10 11 -10 5 0 7 5 4 10 -3 6 -8 10 -11 10 -2 0
-4 -4 -4 -10z"/>
<path d="M1061 1001 c-10 -18 -10 -26 1 -39 11 -15 11 -16 -4 -4 -18 14 -34 0
-22 -20 4 -6 3 -8 -3 -5 -5 3 -44 -53 -87 -126 -42 -73 -89 -152 -103 -177
-22 -37 -23 -42 -7 -27 11 9 24 17 29 17 5 0 -6 -11 -25 -25 -19 -14 -28 -25
-20 -25 7 0 10 -3 6 -7 -4 -5 -12 -8 -18 -8 -13 0 -218 -348 -210 -357 4 -4
14 -8 22 -10 8 -2 21 -9 29 -16 7 -7 20 -11 27 -8 8 3 13 0 11 -6 -1 -7 5 -13
14 -15 16 -4 63 62 71 98 2 8 10 19 18 26 9 7 10 12 4 13 -7 0 -22 -9 -35 -21
-21 -18 -22 -20 -4 -15 l20 6 -20 -16 c-11 -8 -19 -21 -17 -27 2 -7 0 -8 -4
-4 -15 14 -12 36 6 52 10 9 17 22 16 28 -2 7 -1 9 1 5 3 -5 9 -8 14 -8 6 0 8
4 4 9 -3 5 -1 12 5 16 5 3 10 1 10 -4 0 -24 21 -9 38 27 9 20 20 39 23 42 10
9 177 295 174 298 -8 8 -41 9 -50 1 -7 -5 -11 -1 -12 11 -1 11 2 22 8 25 5 3
6 -1 3 -9 -6 -16 11 -17 35 -2 10 6 12 5 7 -2 -9 -16 -3 -15 39 3 34 14 36 13
56 -14 14 -19 29 -28 43 -27 13 2 23 -3 23 -10 0 -10 -5 -10 -20 -2 -24 13
-23 11 42 -100 30 -50 58 -89 62 -86 5 3 7 -1 4 -8 -2 -7 22 -56 53 -108 45
-74 62 -94 77 -92 16 2 17 1 6 -7 -12 -8 -11 -17 10 -55 13 -25 28 -46 33 -46
14 0 106 55 106 63 0 5 6 5 13 0 7 -4 6 2 -4 17 -8 14 -39 66 -69 115 -29 50
-62 98 -74 108 -12 10 -14 15 -6 11 11 -6 10 0 -4 21 -11 17 -31 49 -44 73
-13 23 -25 42 -27 42 -6 0 1 -29 8 -36 10 -11 9 -24 -3 -24 -5 0 -10 7 -10 16
0 9 -5 12 -12 8 -10 -6 -10 -4 -2 7 18 24 11 52 -13 54 -13 1 -23 -2 -23 -7 0
-4 5 -8 10 -8 6 0 10 -7 10 -15 0 -8 -5 -15 -11 -15 -5 0 -8 4 -5 9 4 5 2 11
-2 13 -5 1 -12 17 -15 33 -3 17 -4 24 -1 17 5 -9 9 -10 19 -2 11 9 -1 36 -61
136 -42 68 -80 124 -85 124 -6 0 -7 -5 -3 -12 4 -7 3 -8 -5 -4 -8 6 -9 12 -2
20 8 9 1 28 -23 66 -32 51 -34 52 -45 31z m23 -27 c3 -8 2 -12 -4 -9 -6 3 -10
10 -10 16 0 14 7 11 14 -7z m-49 -75 c-4 -5 -12 -9 -18 -8 -9 0 -8 2 1 6 6 2
9 10 6 15 -4 7 -2 8 5 4 6 -4 9 -12 6 -17z m-5 -47 c0 -5 -7 -17 -15 -28 -14
-18 -14 -17 -4 9 12 27 19 34 19 19z m133 -16 c3 3 3 -4 0 -17 -5 -18 -3 -21
10 -16 9 3 19 2 22 -3 5 -9 -42 -7 -51 2 -3 3 -7 18 -10 34 -4 26 -3 27 9 12
8 -10 17 -15 20 -12z m-137 -34 c-17 -16 -18 -16 -5 5 7 12 15 20 18 17 3 -2
-3 -12 -13 -22z m-70 -35 c-1 -7 -12 -24 -25 -38 -13 -14 -21 -18 -19 -9 2 8
12 20 23 27 11 7 16 12 12 13 -5 0 -5 5 -2 10 9 14 14 12 11 -3z m268 -32 c-4
-8 -11 -12 -16 -9 -6 4 -5 10 3 15 19 12 19 11 13 -6z m-44 -21 c0 -8 4 -13 8
-10 5 3 9 -1 9 -9 0 -9 -10 -12 -29 -9 -20 2 -27 0 -21 -9 4 -7 0 -7 -10 2
-22 17 -12 34 13 21 25 -14 37 -13 22 2 -15 15 -16 28 -2 28 6 0 10 -7 10 -16z
m63 -39 c4 -8 2 -17 -3 -20 -6 -4 -10 3 -10 14 0 25 6 27 13 6z m-250 -51 c-7
-19 -10 -18 -16 5 -3 13 -1 18 9 14 7 -2 10 -11 7 -19z m216 -16 c-8 -15 -13
-17 -19 -8 -4 7 -3 19 3 25 18 19 29 7 16 -17z m-285 -74 c3 -8 -4 -20 -15
-28 -12 -8 -16 -16 -9 -19 7 -4 6 -5 -1 -3 -15 3 -21 34 -8 42 5 3 7 9 5 13
-3 4 1 8 9 8 8 0 16 -6 19 -13z m335 -21 c14 10 14 10 3 -5 -10 -13 -10 -17 0
-21 7 -3 8 -6 2 -6 -6 -1 -19 9 -30 22 -10 12 -12 16 -4 10 11 -10 17 -10 29
0z m126 -22 c3 -6 -4 -15 -15 -21 -20 -11 -21 -10 -10 9 12 23 16 25 25 12z
m-590 -11 c3 -6 -1 -7 -9 -4 -10 4 -16 1 -16 -7 0 -7 -3 -10 -6 -6 -7 7 4 27
16 27 5 0 12 -4 15 -10z m65 -30 c0 -5 -4 -10 -10 -10 -5 0 -10 5 -10 10 0 6
5 10 10 10 6 0 10 -4 10 -10z m528 -15 c-3 -3 -9 2 -12 12 -6 14 -5 15 5 6 7
-7 10 -15 7 -18z m-613 5 c4 -6 12 -7 18 -4 7 4 8 3 4 -1 -10 -12 -39 -16 -32
-5 3 5 -1 11 -7 13 -9 4 -10 6 -1 6 6 1 15 -4 18 -9z m630 -31 c-2 -30 -31
-45 -38 -19 -3 11 -2 18 3 15 4 -3 13 2 20 10 16 19 17 19 15 -6z m-640 -8
c-3 -2 0 -10 6 -18 7 -8 8 -13 1 -13 -5 0 -13 7 -16 16 -4 9 -13 14 -22 10 -8
-3 -12 -2 -9 3 3 6 14 9 25 8 10 -1 17 -3 15 -6z m586 -23 c2 -11 2 -34 0 -55
-1 -15 -3 -16 -11 -3 -5 8 -6 17 -2 20 13 10 12 30 -2 30 -8 0 -17 4 -20 8 -2
4 4 8 15 8 10 0 20 -4 20 -8z m110 -35 c13 -16 12 -17 -3 -4 -10 7 -18 15 -18
17 0 8 8 3 21 -13z m-756 -10 c-2 -10 -4 -19 -4 -21 -1 -2 -6 0 -11 3 -8 5 -7
11 1 21 15 18 18 18 14 -3z m710 -43 c3 0 4 4 1 8 -3 5 1 9 9 9 8 0 12 -8 9
-20 -4 -24 -14 -36 -14 -18 0 8 -6 11 -16 7 -10 -4 -13 -2 -8 6 5 7 2 9 -8 6
-8 -4 -15 0 -15 7 0 10 5 11 18 4 10 -5 20 -9 24 -9z m120 -62 c18 1 18 0 3
-9 -23 -13 -26 -13 -46 8 -16 16 -16 16 3 9 11 -5 29 -8 40 -8z m-875 -9 c0
-5 -4 -8 -9 -5 -5 4 -11 0 -14 -6 -3 -10 -8 -10 -18 1 -8 8 -9 11 -2 7 6 -3
14 -2 18 4 8 13 25 13 25 -1z m24 -1 c-5 -8 -2 -9 9 -5 14 5 15 3 5 -13 -12
-18 -48 -24 -48 -7 0 5 7 6 16 3 11 -4 15 -2 11 8 -3 8 -3 17 0 20 10 10 15 7
7 -6z m781 -8 c3 -6 -1 -7 -9 -4 -18 7 -21 14 -7 14 6 0 13 -4 16 -10z m-740
-31 c-4 -5 -12 -9 -18 -8 -9 0 -8 2 1 6 6 2 9 10 6 15 -4 7 -2 8 5 4 6 -4 9
-12 6 -17z m780 12 c3 -5 2 -12 -3 -15 -5 -3 -9 1 -9 9 0 17 3 19 12 6z"/>
<path d="M895 520 c-3 -5 -2 -10 4 -10 5 0 13 5 16 10 3 6 2 10 -4 10 -5 0
-13 -4 -16 -10z"/>
<path d="M1290 630 c0 -5 5 -10 10 -10 6 0 10 5 10 10 0 6 -4 10 -10 10 -5 0
-10 -4 -10 -10z"/>
<path d="M426 474 c-23 -23 -20 -30 4 -9 11 10 20 20 20 22 0 7 -9 2 -24 -13z"/>
</g>
</svg>
